<svg xmlns="http://www.w3.org/2000/svg" viewBox="0 0 100 100">
  <defs>
    <linearGradient id="grad" x1="0%" y1="0%" x2="100%" y2="100%">
      <stop offset="0%" style="stop-color:#3b82f6;stop-opacity:1" />
      <stop offset="100%" style="stop-color:#8b5cf6;stop-opacity:1" />
    </linearGradient>
  </defs>

  <!-- Background circle -->
  <circle cx="50" cy="50" r="45" fill="url(#grad)"/>

  <!-- Chat bubble icon -->
  <g fill="white">
    <!-- Main bubble -->
    <path d="M30 30 C 30 25, 35 20, 45 20 L 65 20 C 75 20, 80 25, 80 35 L 80 50 C 80 60, 75 65, 65 65 L 50 65 L 40 75 L 40 65 L 35 65 C 25 65, 20 60, 20 50 L 20 35 C 20 30, 23 27, 30 30 Z"/>

    <!-- Dots -->
    <circle cx="40" cy="42" r="3"/>
    <circle cx="50" cy="42" r="3"/>
    <circle cx="60" cy="42" r="3"/>
  </g>
</svg>
